<?xml version="1.0" standalone="no"?>
<!DOCTYPE svg PUBLIC "-//W3C//DTD SVG 20010904//EN"
 "http://www.w3.org/TR/2001/REC-SVG-20010904/DTD/svg10.dtd">
<svg version="1.0" xmlns="http://www.w3.org/2000/svg"
 width="87.000000pt" height="100.000000pt" viewBox="0 0 87.000000 100.000000"
 preserveAspectRatio="xMidYMid meet">

<g transform="translate(0.000000,100.000000) scale(0.100000,-0.100000)"
fill="#827b7b" stroke="none">
<path d="M213 868 l-213 -123 0 -245 0 -245 208 -120 c114 -66 214 -120 222
-120 8 0 108 54 223 120 l207 120 0 245 0 246 -207 119 c-113 66 -211 121
-217 123 -6 1 -107 -53 -223 -120z m390 -43 c86 -49 157 -92 157 -95 0 -10
-321 -191 -334 -188 -18 4 -326 182 -326 188 0 10 316 188 331 187 9 -1 86
-42 172 -92z m-360 -250 l156 -90 1 -192 c0 -106 -3 -193 -6 -193 -3 0 -77 41
-165 92 l-159 92 0 194 c0 107 4 192 8 190 5 -1 79 -43 165 -93z m555 -97 l-3
-192 -160 -93 c-88 -51 -163 -93 -167 -93 -5 0 -8 87 -8 193 l1 192 157 91
c86 51 163 92 170 93 10 1 12 -41 10 -191z"/>
</g>
</svg>
